<?xml version="1.0" standalone="no"?>
<!DOCTYPE svg PUBLIC "-//W3C//DTD SVG 20010904//EN"
 "http://www.w3.org/TR/2001/REC-SVG-20010904/DTD/svg10.dtd">
<svg version="1.0" xmlns="http://www.w3.org/2000/svg"
 width="2271.000000pt" height="2271.000000pt" viewBox="0 0 2271.000000 2271.000000"
 preserveAspectRatio="xMidYMid meet">
<metadata>
Created by potrace 1.14, written by Peter Selinger 2001-2017
</metadata>
<g transform="translate(0.000000,2271.000000) scale(0.100000,-0.100000)"
fill="#000000" stroke="none">
<path d="M9655 22140 c-242 -8 -285 -15 -375 -60 -119 -60 -209 -167 -255
-303 -21 -64 -25 -94 -25 -196 0 -300 49 -425 219 -560 l86 -68 1750 -7 c2168
-9 2326 -4 2446 77 42 28 142 172 170 246 30 77 39 349 15 458 -41 195 -151
320 -336 385 -46 16 -101 21 -330 28 -316 11 -3019 10 -3365 0z"/>
<path d="M9331 20243 c0 -126 8 -831 18 -1568 l18 -1340 -460 -1045 c-1621
-3687 -2486 -5679 -2613 -6018 -243 -645 -301 -1218 -167 -1647 54 -173 156
-340 274 -451 186 -174 568 -342 874 -384 44 -6 213 -15 375 -20 386 -12 7022
-12 7410 0 319 10 394 18 540 55 455 115 756 327 910 640 86 174 114 286 130
508 31 416 -55 873 -259 1384 -139 349 -2008 4634 -2956 6775 l-87 198 20
1562 c11 860 18 1566 15 1571 -2 4 -150 7 -329 7 l-324 0 0 -1628 0 -1628 86
-189 c443 -978 2003 -4490 2604 -5865 76 -173 197 -450 270 -615 165 -374 231
-549 280 -740 51 -201 64 -306 64 -520 1 -201 -7 -243 -71 -369 -71 -142 -162
-247 -278 -322 -78 -49 -137 -74 -317 -134 l-153 -50 -3870 2 -3870 3 -140 48
c-339 117 -504 257 -595 505 -89 245 -77 531 40 920 68 224 131 382 360 897
120 270 349 789 510 1155 471 1071 642 1459 979 2218 297 667 1138 2555 1300
2917 l71 159 -2 1616 -3 1615 -327 3 -328 2 1 -227z"/>
<path d="M17340 20278 c-575 -37 -1050 -455 -1171 -1031 -30 -143 -30 -361 0
-504 67 -322 223 -568 499 -790 490 -394 944 -844 1333 -1323 209 -256 500
-671 676 -965 980 -1632 1385 -3571 1142 -5475 -308 -2419 -1651 -4599 -3684
-5982 -1733 -1180 -3854 -1675 -5945 -1387 -2266 311 -4330 1539 -5697 3389
-1288 1744 -1856 3874 -1612 6050 171 1530 774 3013 1720 4231 395 510 881
1007 1371 1402 180 145 215 177 282 257 207 245 309 522 309 840 0 80 -6 171
-16 225 -87 484 -445 882 -918 1019 -344 99 -745 42 -1041 -149 -221 -143
-724 -581 -1109 -965 -1833 -1832 -2962 -4241 -3194 -6815 -30 -337 -36 -457
-42 -870 -9 -665 24 -1180 118 -1810 589 -3975 3327 -7350 7114 -8770 935
-351 1935 -574 2950 -660 579 -48 1273 -48 1860 0 1865 156 3650 778 5210
1816 1953 1299 3454 3185 4273 5369 613 1635 831 3415 631 5170 -244 2153
-1108 4172 -2494 5834 -429 513 -923 1006 -1443 1438 -230 192 -321 259 -432
317 -215 112 -433 156 -690 139z"/>
<path d="M10490 14874 c-19 -2 -78 -9 -130 -15 -109 -13 -195 -41 -332 -109
-303 -151 -535 -376 -675 -655 -149 -296 -190 -664 -114 -1014 13 -58 15 -84
7 -86 -6 -2 -144 -6 -306 -10 -162 -4 -298 -10 -301 -13 -4 -4 -129 -288 -279
-632 -409 -940 -557 -1270 -788 -1765 -270 -579 -332 -777 -332 -1052 0 -214
48 -357 162 -478 100 -107 197 -160 433 -236 l120 -39 2860 1 c2832 0 3826 7
3979 29 43 6 111 23 150 37 239 85 386 223 460 432 29 83 30 92 31 256 0 178
-9 240 -61 427 -49 176 -98 299 -251 628 -134 287 -458 1018 -793 1785 -144
330 -264 603 -268 607 -4 4 -465 10 -1025 14 -733 5 -1017 10 -1014 18 3 6 15
52 28 101 22 82 24 110 24 315 0 137 -6 256 -14 305 -42 261 -206 555 -424
761 -218 206 -438 324 -692 369 -86 16 -380 28 -455 19z m260 -294 c382 -41
718 -266 894 -601 92 -174 129 -327 129 -529 0 -98 -6 -161 -21 -230 -125
-578 -671 -964 -1260 -890 -163 21 -350 90 -483 181 -78 52 -216 189 -287 284
-69 92 -136 223 -161 315 -48 172 -54 518 -12 650 27 85 117 263 174 342 196
273 489 446 809 477 118 12 114 12 218 1z m1677 -2622 c113 -34 183 -78 289
-183 100 -99 152 -187 196 -325 19 -63 23 -96 23 -210 0 -114 -4 -147 -23
-210 -94 -299 -335 -501 -643 -539 -432 -54 -839 311 -839 753 0 203 68 370
210 520 101 106 212 175 340 211 88 24 340 15 447 -17z m-653 -1742 c165 -59
279 -191 321 -368 62 -263 -74 -493 -345 -584 -79 -26 -234 -24 -314 5 -202
72 -337 263 -338 477 0 99 19 168 67 249 66 113 212 219 335 245 73 15 197 4
274 -24z"/>
<path d="M11360 14296 c0 -2 8 -10 18 -17 15 -13 16 -12 3 4 -13 16 -21 21
-21 13z"/>
<path d="M9854 14228 l-29 -33 33 29 c30 28 37 36 29 36 -2 0 -16 -15 -33 -32z"/>
<path d="M11460 14196 c0 -2 8 -10 18 -17 15 -13 16 -12 3 4 -13 16 -21 21
-21 13z"/>
<path d="M9875 12650 c21 -22 41 -40 44 -40 3 0 -13 18 -34 40 -21 22 -41 40
-44 40 -3 0 13 -18 34 -40z"/>
<path d="M10618 12343 c7 -3 16 -2 19 1 4 3 -2 6 -13 5 -11 0 -14 -3 -6 -6z"/>
<path d="M11670 10725 c19 -19 36 -35 39 -35 3 0 -10 16 -29 35 -19 19 -36 35
-39 35 -3 0 10 -16 29 -35z"/>
<path d="M12704 10728 l-29 -33 33 29 c17 17 32 31 32 33 0 8 -8 1 -36 -29z"/>
<path d="M11249 10073 l-24 -28 28 24 c15 14 27 26 27 28 0 8 -8 1 -31 -24z"/>
<path d="M9590 14475 c-24 -25 -42 -45 -39 -45 3 0 25 20 49 45 24 25 42 45
39 45 -3 0 -25 -20 -49 -45z"/>
<path d="M11690 14465 c13 -14 26 -25 28 -25 3 0 -5 11 -18 25 -13 14 -26 25
-28 25 -3 0 5 -11 18 -25z"/>
<path d="M12178 13013 c12 -2 32 -2 45 0 12 2 2 4 -23 4 -25 0 -35 -2 -22 -4z"/>
<path d="M12308 13013 c6 -2 18 -2 25 0 6 3 1 5 -13 5 -14 0 -19 -2 -12 -5z"/>
<path d="M13598 13003 c7 -3 16 -2 19 1 4 3 -2 6 -13 5 -11 0 -14 -3 -6 -6z"/>
<path d="M13683 13003 c9 -2 23 -2 30 0 6 3 -1 5 -18 5 -16 0 -22 -2 -12 -5z"/>
<path d="M7350 9056 c0 -2 8 -10 18 -17 15 -13 16 -12 3 4 -13 16 -21 21 -21
13z"/>
</g>
</svg>
